<?xml version="1.0" standalone="no"?>
<!DOCTYPE svg PUBLIC "-//W3C//DTD SVG 20010904//EN"
 "http://www.w3.org/TR/2001/REC-SVG-20010904/DTD/svg10.dtd">
<svg version="1.0" xmlns="http://www.w3.org/2000/svg"
 width="1024.000000pt" height="1024.000000pt" viewBox="0 0 1024.000000 1024.000000"
 preserveAspectRatio="xMidYMid meet">

<g transform="translate(0.000000,1024.000000) scale(0.100000,-0.100000)"
fill="#F97306" stroke="none">
<path d="M4920 7984 c-36 -7 -116 -39 -178 -70 -101 -49 -124 -66 -211 -152
-100 -99 -161 -186 -206 -298 l-23 -56 -171 2 -172 1 2 -141 1 -140 1153 0
c634 0 1167 -3 1184 -6 l31 -6 0 146 0 146 -168 0 -167 0 -43 94 c-118 256
-362 445 -634 491 l-38 6 0 -288 c0 -268 -1 -290 -20 -320 -38 -62 -125 -82
-182 -42 -55 39 -58 61 -58 369 0 260 -1 280 -17 279 -10 -1 -47 -7 -83 -15z"/>
<path d="M4336 6658 c4 -159 9 -219 24 -275 83 -306 317 -538 605 -598 97 -20
258 -23 340 -6 292 62 530 279 627 571 31 92 32 102 36 303 l4 207 -820 0
-821 0 5 -202z"/>
<path d="M6423 6759 c-125 -19 -134 0 111 -248 l219 -221 -118 -122 c-65 -68
-126 -129 -134 -136 -13 -10 23 -50 244 -272 l260 -260 96 96 96 96 81 -88 81
-87 -79 -86 -79 -85 151 -158 c83 -87 151 -158 152 -158 1 0 116 113 255 250
l252 251 -60 67 c-33 37 -102 109 -154 160 l-94 93 -67 -69 c-37 -39 -74 -78
-81 -88 -13 -18 -20 -13 -102 69 l-88 88 53 50 53 51 -171 178 c-93 98 -170
182 -170 186 0 5 46 55 103 112 60 61 98 106 92 110 -6 4 -31 21 -55 38 -99
69 -250 133 -390 165 -99 23 -359 33 -457 18z"/>
<path d="M3158 6677 c-32 -7 -60 -16 -63 -19 -3 -3 86 -101 199 -218 114 -117
206 -216 206 -219 0 -3 -77 -85 -171 -181 l-171 -176 -221 223 c-121 123 -223
223 -227 223 -14 0 -59 -117 -71 -184 -16 -97 -7 -255 21 -335 13 -35 44 -96
71 -136 133 -198 320 -292 565 -283 l104 4 168 -171 c92 -93 349 -356 572
-583 l404 -413 180 180 181 181 -255 257 c-141 142 -382 387 -537 545 l-282
287 40 78 c55 109 74 188 73 308 -2 187 -59 329 -182 453 -79 80 -152 126
-259 163 -74 26 -262 35 -345 16z"/>
<path d="M6254 5487 c-93 -95 -331 -338 -528 -540 l-360 -368 185 -185 184
-184 497 497 c274 274 514 518 534 542 l37 43 -114 115 c-63 63 -148 145 -190
183 l-76 69 -169 -172z"/>
<path d="M4588 5515 c-49 -46 -88 -88 -88 -92 0 -5 143 -151 318 -326 l317
-317 325 325 325 325 -86 86 -85 85 -55 -36 c-111 -73 -244 -108 -414 -108
-178 0 -298 34 -440 123 l-30 18 -87 -83z"/>
<path d="M3345 4899 c-105 -67 -183 -172 -217 -290 -14 -51 -25 -1809 -11
-1809 5 0 157 149 338 332 182 183 451 454 598 602 l268 270 -188 191 c-470
476 -728 735 -733 735 -4 0 -28 -14 -55 -31z"/>
<path d="M6427 4468 c-250 -255 -458 -466 -463 -470 -4 -4 158 -173 359 -376
l366 -368 -107 -102 -107 -102 -670 670 -670 671 -969 -971 c-895 -897 -968
-972 -959 -993 18 -38 113 -136 160 -164 104 -60 127 -63 567 -63 l401 0 403
403 402 402 402 -402 403 -403 395 0 c437 0 474 4 582 62 110 58 209 194 236
323 17 77 23 1899 7 1990 -22 125 -83 221 -190 301 -41 30 -78 54 -83 54 -5 0
-214 -208 -465 -462z m-1083 -593 c96 -91 181 -176 190 -190 36 -54 8 -148
-53 -180 -32 -16 -98 -20 -119 -7 -22 14 -326 315 -349 346 -61 81 7 196 115
196 42 0 47 -4 216 -165z m-138 -734 c-49 -50 -126 -85 -168 -76 -18 4 -56 32
-91 66 -54 53 -65 59 -101 59 -41 0 -45 -4 -411 -371 -206 -207 -384 -377
-402 -385 -70 -30 -163 -13 -217 42 -66 67 -83 151 -46 225 13 24 169 186 395
410 326 323 375 376 381 408 17 104 51 167 108 202 l31 19 280 -280 280 -280
-39 -39z m1235 -355 c93 -62 112 -183 43 -266 -88 -104 -249 -80 -305 45 -23
49 -24 84 -4 133 47 111 169 152 266 88z"/>
</g>
</svg>
